<svg xmlns="http://www.w3.org/2000/svg" width="100" height="100" viewBox="0 0 100 100"><rect width="100%" height="100%" fill="#DDDDDD"/><path fill="#999999" d="M18.815 35.295h1.73v10.4h-1.73zm6.64 3.11q.8 0 1.45.25.66.26 1.12.74.47.48.72 1.16.25.69.25 1.54t-.25 1.54q-.25.68-.72 1.16-.46.49-1.12.75-.65.25-1.45.25t-1.46-.25q-.66-.26-1.13-.75-.46-.48-.72-1.16-.25-.69-.25-1.54t.25-1.54q.26-.68.72-1.16.47-.48 1.13-.74.66-.25 1.46-.25m0 6.06q.9 0 1.33-.6t.43-1.76-.43-1.77-1.33-.61q-.91 0-1.35.61-.43.61-.43 1.77 0 1.15.43 1.76.44.6 1.35.6m7.49-2.54q.32 0 .56-.08.24-.09.4-.24.15-.16.23-.38.08-.21.08-.47 0-.53-.31-.85-.32-.31-.96-.31t-.95.31q-.32.32-.32.85 0 .25.08.47.08.21.24.37.15.16.39.25.25.08.56.08m1.95 4.09q0-.21-.12-.34-.13-.13-.35-.21-.21-.07-.5-.11-.29-.03-.62-.05-.32-.02-.67-.03t-.68-.06q-.28.16-.46.38t-.18.51q0 .18.09.35.1.16.31.28.2.12.53.19.33.06.81.06t.83-.07.58-.2q.22-.13.33-.31.1-.18.1-.39m-.34-7.26h2.07v.65q0 .3-.38.37l-.64.12q.15.38.15.82 0 .53-.22.96-.21.43-.59.73t-.89.47q-.51.16-1.11.16-.21 0-.41-.02-.19-.02-.38-.06-.34.21-.34.46 0 .22.2.32t.53.14.75.05.86.05q.44.03.86.12t.75.28.53.51q.2.33.2.84 0 .47-.23.92-.24.45-.68.8-.45.35-1.1.56-.64.22-1.47.22-.81 0-1.41-.16-.61-.16-1-.42-.4-.26-.6-.61-.2-.34-.2-.71 0-.5.31-.84.3-.34.84-.55-.29-.14-.46-.39-.17-.24-.17-.64 0-.16.06-.33.06-.18.18-.34.11-.17.29-.32.17-.15.41-.27-.55-.3-.86-.79t-.31-1.14q0-.54.22-.97.21-.43.59-.73.38-.31.9-.47t1.14-.16q.46 0 .87.1.4.09.74.27m6.34-.35q.79 0 1.45.25.65.26 1.12.74.46.48.72 1.16.25.69.25 1.54t-.25 1.54q-.26.68-.72 1.16-.47.49-1.12.75-.66.25-1.45.25-.81 0-1.47-.25-.66-.26-1.12-.75-.47-.48-.72-1.16-.26-.69-.26-1.54t.26-1.54q.25-.68.72-1.16.46-.48 1.12-.74.66-.25 1.47-.25m0 6.06q.89 0 1.32-.6t.43-1.76-.43-1.77-1.32-.61q-.91 0-1.35.61t-.44 1.77q0 1.15.44 1.76.44.6 1.35.6m4.8-2.28v-1.44h3.63v1.44zm10.06-2.9-.4.63q-.07.11-.14.16-.08.04-.2.04t-.27-.07q-.14-.07-.33-.16-.19-.08-.43-.15t-.57-.07q-.51 0-.8.21-.29.22-.29.57 0 .23.15.39t.4.28q.24.11.56.21.31.09.64.2.33.12.64.26.32.14.56.36.25.22.4.53t.15.75q0 .51-.18.95-.19.44-.55.76-.37.32-.9.49-.54.18-1.24.18-.37 0-.72-.06-.35-.07-.68-.19t-.6-.28q-.28-.16-.49-.35l.4-.66q.08-.12.18-.18.11-.06.27-.06t.3.09q.15.09.34.19.18.11.44.2t.65.09q.31 0 .53-.07.22-.08.36-.19.14-.12.21-.28t.07-.33q0-.25-.15-.41t-.4-.28-.57-.21q-.32-.1-.65-.21t-.65-.26-.57-.38q-.25-.24-.4-.57-.15-.34-.15-.81 0-.44.18-.84.17-.4.51-.7t.85-.48q.51-.17 1.17-.17.74 0 1.35.24.61.25 1.02.64m3.1 6.41h-1.72v-7.18h1.05q.34 0 .44.31l.12.54q.18-.21.39-.39t.44-.3q.24-.13.51-.2t.59-.07q.68 0 1.11.36.44.37.66.98.17-.36.42-.61.25-.26.55-.42t.64-.24q.34-.07.68-.07.6 0 1.06.18t.78.53q.31.35.48.85.16.51.16 1.16v4.57h-1.73v-4.57q0-.69-.3-1.03-.3-.35-.88-.35-.27 0-.49.09-.23.09-.4.26-.17.18-.27.43-.1.26-.1.6v4.57h-1.74v-4.57q0-.72-.29-1.05t-.85-.33q-.37 0-.7.19-.33.18-.61.5zm13.79-1.85v-1.22q-.74.04-1.26.13-.51.1-.81.25-.31.14-.45.34-.13.19-.13.42 0 .46.27.66.27.19.7.19.54 0 .93-.19.38-.19.75-.58m-3.65-3.78-.31-.55q1.24-1.14 2.98-1.14.63 0 1.13.21t.84.58q.34.36.52.87t.18 1.12v4.54h-.78q-.25 0-.38-.07-.13-.08-.21-.3l-.15-.52q-.28.25-.54.43-.26.19-.54.31-.28.13-.59.2-.32.06-.71.06-.45 0-.84-.12-.38-.12-.66-.37-.28-.24-.44-.61-.15-.36-.15-.84 0-.28.09-.55t.3-.51q.2-.25.53-.46.33-.22.81-.38t1.12-.26 1.45-.13v-.42q0-.72-.3-1.06-.31-.35-.89-.35-.42 0-.7.1t-.49.22-.38.22-.38.1q-.18 0-.31-.1-.12-.09-.2-.22m6.99-4.77h1.73v10.4h-1.73zm3.48 0h1.72v10.4h-1.72zm-59.31 22.81q0 1.44.35 2.84.35 1.39 1 2.61.07.14.08.25t-.01.19q-.03.08-.09.14t-.13.1l-.77.47q-.52-.8-.88-1.6-.37-.81-.6-1.62-.23-.82-.34-1.66t-.11-1.72q0-.87.11-1.72.11-.84.34-1.66t.6-1.62q.36-.8.88-1.6l.77.46q.07.04.13.1t.09.14q.02.08.01.19t-.08.26q-.65 1.22-1 2.61-.35 1.4-.35 2.84m7.26 3.1h1.82v1.29h-5.6v-1.29h2.05v-5.91q0-.35.02-.72l-1.45 1.22q-.13.1-.25.12-.12.03-.23.01t-.2-.08q-.08-.05-.12-.11l-.55-.75 3.09-2.63h1.42zm10.47-3.77q0 1.32-.29 2.3-.28.98-.78 1.61-.5.64-1.18.95-.69.31-1.48.31t-1.46-.31q-.68-.31-1.18-.95-.49-.63-.77-1.61t-.28-2.3q0-1.33.28-2.3.28-.98.77-1.61.5-.64 1.18-.95.67-.31 1.46-.31t1.48.31q.68.31 1.18.95.5.63.78 1.61.29.97.29 2.3m-1.79 0q0-1.1-.16-1.82t-.43-1.15-.62-.6-.73-.17q-.37 0-.72.17-.34.17-.61.6-.26.43-.42 1.15t-.16 1.82.16 1.82.42 1.15q.27.42.61.6.35.17.72.17.38 0 .73-.17.35-.18.62-.6.27-.43.43-1.15t.16-1.82m9.91 0q0 1.32-.29 2.3-.28.98-.78 1.61-.5.64-1.18.95-.69.31-1.48.31t-1.46-.31q-.68-.31-1.18-.95-.49-.63-.77-1.61t-.28-2.3q0-1.33.28-2.3.28-.98.77-1.61.5-.64 1.18-.95.67-.31 1.46-.31t1.48.31q.68.31 1.18.95.5.63.78 1.61.29.97.29 2.3m-1.79 0q0-1.1-.16-1.82t-.43-1.15-.62-.6-.73-.17q-.37 0-.72.17-.34.17-.61.6-.26.43-.42 1.15t-.16 1.82.16 1.82.42 1.15q.27.42.61.6.35.17.72.17.38 0 .73-.17.35-.18.62-.6.27-.43.43-1.15t.16-1.82m6.94 1.28 2.46 3.78h-1.66q-.19 0-.31-.1-.11-.1-.19-.22l-1.52-2.5q-.04.12-.08.22-.05.11-.1.2l-1.35 2.08q-.07.12-.19.22-.11.1-.28.1h-1.54l2.46-3.7-2.36-3.48h1.66q.19 0 .28.05t.16.17l1.51 2.4q.07-.24.21-.47l1.22-1.89q.15-.26.39-.26h1.59zm7.93 2.49h1.82v1.29h-5.6v-1.29h2.05v-5.91q0-.35.02-.72l-1.46 1.22q-.12.1-.24.12-.13.03-.23.01-.11-.02-.2-.08-.08-.05-.12-.11l-.55-.75 3.09-2.63h1.42zm10.46-3.77q0 1.32-.28 2.3t-.78 1.61q-.5.64-1.19.95-.68.31-1.47.31t-1.47-.31q-.67-.31-1.17-.95-.5-.63-.78-1.61t-.28-2.3q0-1.33.28-2.3.28-.98.78-1.61.5-.64 1.17-.95.68-.31 1.47-.31t1.47.31q.69.31 1.19.95.5.63.78 1.61.28.97.28 2.3m-1.78 0q0-1.1-.16-1.82t-.43-1.15-.62-.6-.73-.17q-.37 0-.72.17-.34.17-.61.6t-.42 1.15q-.16.72-.16 1.82t.16 1.82q.15.72.42 1.15.27.42.61.6.35.17.72.17.38 0 .73-.17.35-.18.62-.6.27-.43.43-1.15t.16-1.82m9.9 0q0 1.32-.28 2.3t-.78 1.61q-.5.64-1.19.95-.68.31-1.47.31t-1.47-.31q-.67-.31-1.17-.95-.5-.63-.78-1.61t-.28-2.3q0-1.33.28-2.3.28-.98.78-1.61.5-.64 1.17-.95.68-.31 1.47-.31t1.47.31q.69.31 1.19.95.5.63.78 1.61.28.97.28 2.3m-1.78 0q0-1.1-.16-1.82t-.43-1.15-.62-.6-.73-.17q-.37 0-.72.17-.34.17-.61.6t-.42 1.15q-.16.72-.16 1.82t.16 1.82q.15.72.42 1.15.27.42.61.6.35.17.72.17.38 0 .73-.17.35-.18.62-.6.27-.43.43-1.15t.16-1.82m3.96.67q0-1.44-.35-2.84-.34-1.39-.99-2.61-.08-.15-.09-.26t.02-.19q.02-.08.08-.14t.14-.1l.77-.46q.52.8.88 1.6.37.8.6 1.62t.33 1.66q.11.85.11 1.72 0 .88-.11 1.72-.1.84-.33 1.66-.23.81-.6 1.62-.36.8-.88 1.6l-.77-.47q-.08-.04-.14-.1t-.08-.14q-.03-.08-.02-.19t.09-.25q.65-1.22.99-2.61.35-1.4.35-2.84"/></svg>